# Blender 4.5.0
# www.blender.org
mtllib model.mtl
o Cube
v 1.000000 1.000000 -1.000000
v 1.000000 -1.000000 -1.000000
v 1.000000 1.000000 1.000000
v 1.000000 -1.000000 1.000000
v -1.000000 1.000000 -1.000000
v -1.000000 -1.000000 -1.000000
v -1.000000 1.000000 1.000000
v -1.000000 -1.000000 1.000000
v 0.532591 2.467409 1.000000
v -0.532591 2.467409 1.000000
v 1.000000 2.439415 -0.560586
v -1.000000 2.000000 -1.000000
v 0.532591 3.532591 1.000000
v -0.532591 3.532591 1.000000
v 1.000000 3.560585 -0.560586
v -1.000000 4.000000 -1.000000
v 1.000000 2.439415 0.560586
v -1.000000 2.000000 1.000000
v 1.000000 3.560585 0.560586
v -1.000000 4.000000 1.000000
v 1.000000 2.000000 1.000000
v -1.000000 2.000000 1.000000
v 1.000000 4.000000 1.000000
v -1.000000 4.000000 1.000000
v 1.000000 2.000000 1.000000
v -1.000000 2.000000 1.000000
v 1.000000 4.000000 1.000000
v -1.000000 4.000000 1.000000
v 1.000000 2.000000 1.000000
v -1.000000 2.000000 1.000000
v 1.000000 4.000000 1.000000
v -1.000000 4.000000 1.000000
v 0.532591 2.467409 5.837204
v -0.532591 2.467409 5.837204
v 0.532591 3.532591 5.837204
v -0.532591 3.532591 5.837204
v 3.987716 1.000000 3.987716
v -1.000000 1.000000 5.225269
v 5.225269 1.000000 -1.000000
v 3.987716 2.000000 3.987716
v -1.000000 2.000000 5.225269
v 5.225269 2.000000 -1.000000
v 0.532591 2.467409 5.837204
v -0.532591 2.467409 5.837204
v 0.532591 3.532591 5.837204
v -0.532591 3.532591 5.837204
v 1.000000 2.000000 -1.000000
v 1.000000 2.000000 1.000000
v 1.000000 4.000000 -1.000000
v 1.000000 4.000000 1.000000
v 1.000000 2.000000 -1.000000
v 1.000000 2.000000 1.000000
v 1.000000 4.000000 -1.000000
v 1.000000 4.000000 1.000000
v -0.055412 2.439415 -0.560586
v -0.055412 2.439415 0.560586
v -0.055412 3.560585 -0.560586
v -0.055412 3.560585 0.560586
v 0.460320 2.439415 -0.560586
v 0.460320 2.439415 0.560586
v 0.460320 3.560585 -0.560586
v 0.460320 3.560585 0.560586
v 1.000000 3.889228 1.000000
v 0.681162 4.208066 0.681162
v 0.906614 4.114681 0.906614
v -0.681162 4.208066 0.681162
v -1.000000 3.889228 1.000000
v -0.906614 4.114681 0.906614
v 1.000000 3.889228 -1.000000
v 0.681162 4.208066 -0.681162
v 0.906614 4.114681 -0.906614
v -0.681162 4.208066 -0.681162
v -1.000000 3.889228 -1.000000
v -0.906614 4.114681 -0.906614
v 1.000000 0.333333 -1.000000
v 1.000000 -0.333333 -1.000000
v -1.000000 -0.333333 1.000000
v -1.000000 0.333333 1.000000
v 1.000000 0.333333 1.000000
v 1.000000 -0.333333 1.000000
v -1.000000 0.333333 -1.000000
v -1.000000 -0.333333 -1.000000
v 1.000000 -0.666667 -1.000000
v 1.000000 -0.666667 1.000000
v -1.000000 -0.666667 -1.000000
v -1.000000 -0.666667 1.000000
v 0.338346 0.333333 -0.338346
v 0.338346 -0.333333 -0.338346
v -0.338346 -0.333333 0.338346
v -0.338346 0.333333 0.338346
v 0.338346 0.333333 0.338346
v 0.338346 -0.333333 0.338346
v -0.338346 0.333333 -0.338346
v -0.338346 -0.333333 -0.338346
vn -0.0000 -0.0000 -1.0000
vn -0.0000 -0.0000 1.0000
vn -1.0000 -0.0000 -0.0000
vn -0.0000 -1.0000 -0.0000
vn 1.0000 -0.0000 -0.0000
vn -0.0000 1.0000 -0.0000
vn 0.9706 -0.0000 0.2408
vn 0.2408 -0.0000 0.9706
vn -0.0000 0.9239 0.3827
vn -0.0000 0.3827 0.9239
vn 0.3827 0.9239 -0.0000
vn 0.9239 0.3827 -0.0000
vn -0.3827 0.9239 -0.0000
vn -0.9239 0.3827 -0.0000
vn -0.0000 0.9239 -0.3827
vn -0.0000 0.3827 -0.9239
vt 0.625000 0.500000
vt 0.541667 0.750000
vt 0.625000 0.750000
vt 0.625000 1.000000
vt 0.541667 1.000000
vt 0.541667 0.000000
vt 0.625000 0.000000
vt 0.625000 0.250000
vt 0.541667 0.250000
vt 0.125000 0.500000
vt 0.375000 0.500000
vt 0.375000 0.750000
vt 0.125000 0.750000
vt 0.541667 0.500000
vt 0.625000 0.808426
vt 0.625000 0.808426
vt 0.625000 0.554927
vt 0.000000 0.000000
vt 0.625000 0.941574
vt 0.625000 0.941574
vt 0.625000 0.695073
vt 0.625000 0.695073
vt 0.664855 0.710145
vt 0.835145 0.710145
vt 0.869163 0.744163
vt 0.627652 0.747348
vt 0.625000 0.988327
vt 0.625000 1.000000
vt 0.625000 0.750000
vt 0.664855 0.539855
vt 0.627652 0.502652
vt 0.835145 0.539855
vt 0.869163 0.505837
vt 0.625000 0.011673
vt 0.625000 0.250000
vt 0.416667 0.250000
vt 0.458333 0.250000
vt 0.458333 0.500000
vt 0.416667 0.500000
vt 0.458333 0.750000
vt 0.416667 0.750000
vt 0.416667 0.000000
vt 0.458333 0.000000
vt 0.458333 1.000000
vt 0.416667 1.000000
vt 0.375000 1.000000
vt 0.375000 0.000000
vt 0.375000 0.250000
s 0
usemtl Material
f 1/1/1 47/1/1 42/1/1 39/1/1
f 79/2/2 3/3/2 7/4/2 78/5/2
f 78/6/3 7/7/3 5/8/3 81/9/3
f 6/10/4 2/11/4 4/12/4 8/13/4
f 75/14/5 1/1/5 3/3/5 79/2/5
f 81/9/1 5/8/1 1/1/1 75/14/1
f 12/8/3 18/7/3 20/7/3 16/8/3
f 1/1/1 5/8/1 12/8/1 47/1/1
f 3/3/4 1/1/4 39/1/4 37/3/4
f 5/8/3 7/7/3 18/7/3 12/8/3
f 9/15/5 13/16/5 45/16/5 43/15/5
f 47/1/1 12/8/1 16/8/1 49/1/1
f 11/17/2 15/17/2 57/17/2 55/17/2
f 21/3/6 22/4/6 18/4/6 48/3/6
f 24/4/6 23/3/6 50/3/6 20/4/6
f 22/18/6 24/18/6 20/18/6 18/18/6
f 23/18/6 21/18/6 48/18/6 50/18/6
f 25/3/6 26/4/6 22/4/6 21/3/6
f 28/4/6 27/3/6 23/3/6 24/4/6
f 26/18/6 28/18/6 24/18/6 22/18/6
f 27/18/6 25/18/6 21/18/6 23/18/6
f 29/3/6 30/4/6 26/4/6 25/3/6
f 32/4/6 31/3/6 27/3/6 28/4/6
f 30/18/6 32/18/6 28/18/6 26/18/6
f 31/18/6 29/18/6 25/18/6 27/18/6
f 9/15/2 10/19/2 30/4/2 29/3/2
f 14/20/2 13/16/2 31/3/2 32/4/2
f 10/19/2 14/20/2 32/4/2 30/4/2
f 13/16/2 9/15/2 29/3/2 31/3/2
f 34/19/2 33/15/2 35/16/2 36/20/2
f 13/16/6 14/20/6 46/20/6 45/16/6
f 14/20/3 10/19/3 44/19/3 46/20/3
f 10/19/4 9/15/4 43/15/4 44/19/4
f 37/3/7 39/1/7 42/1/7 40/3/7
f 38/4/8 37/3/8 40/3/8 41/4/8
f 48/3/6 18/4/6 41/4/6 40/3/6
f 18/7/3 7/7/3 38/7/3 41/7/3
f 7/4/4 3/3/4 37/3/4 38/4/4
f 47/1/6 48/3/6 40/3/6 42/1/6
f 33/15/6 34/19/6 44/19/6 43/15/6
f 36/20/6 35/16/6 45/16/6 46/20/6
f 34/19/6 36/20/6 46/20/6 44/19/6
f 35/16/6 33/15/6 43/15/6 45/16/6
f 51/1/6 52/3/6 48/3/6 47/1/6
f 54/3/6 53/1/6 49/1/6 50/3/6
f 52/18/6 54/18/6 50/18/6 48/18/6
f 53/18/6 51/18/6 47/18/6 49/18/6
f 11/17/5 17/21/5 52/3/5 51/1/5
f 19/22/5 15/17/5 53/1/5 54/3/5
f 17/21/5 19/22/5 54/3/5 52/3/5
f 15/17/5 11/17/5 51/1/5 53/1/5
f 58/22/2 56/21/2 60/21/2 62/22/2
f 15/17/4 19/22/4 58/22/4 57/17/4
f 19/22/1 17/21/1 56/21/1 58/22/1
f 17/21/6 11/17/6 55/17/6 56/21/6
f 60/21/5 59/17/5 61/17/5 62/22/5
f 56/21/4 55/17/4 59/17/4 60/21/4
f 55/17/1 57/17/1 61/17/1 59/17/1
f 57/17/6 58/22/6 62/22/6 61/17/6
f 64/23/9 66/24/9 68/25/9 65/26/9
f 65/26/10 68/27/10 67/28/10 63/29/10
f 70/30/11 64/23/11 65/26/11 71/31/11
f 71/31/12 65/26/12 63/29/12 69/1/12
f 66/24/13 72/32/13 74/33/13 68/25/13
f 68/34/14 74/8/14 73/35/14 67/7/14
f 72/32/15 70/30/15 71/31/15 74/33/15
f 74/8/16 71/31/16 69/1/16 73/35/16
f 20/4/1 50/3/1 63/29/1 67/28/1
f 70/30/6 72/32/6 66/24/6 64/23/6
f 50/3/3 49/1/3 69/1/3 63/29/3
f 16/8/5 20/7/5 67/7/5 73/35/5
f 49/1/2 16/8/2 73/35/2 69/1/2
f 85/36/1 82/37/1 76/38/1 83/39/1
f 78/6/4 81/9/4 93/9/4 90/6/4
f 83/39/5 76/38/5 80/40/5 84/41/5
f 79/2/4 78/5/4 90/5/4 91/2/4
f 86/42/3 77/43/3 82/37/3 85/36/3
f 76/38/6 82/37/6 94/37/6 88/38/6
f 84/41/2 80/40/2 77/44/2 86/45/2
f 80/40/6 76/38/6 88/38/6 92/40/6
f 4/12/2 84/41/2 86/45/2 8/46/2
f 8/47/3 86/42/3 85/36/3 6/48/3
f 2/11/5 83/39/5 84/41/5 4/12/5
f 6/48/1 85/36/1 83/39/1 2/11/1
f 94/37/1 93/9/1 87/14/1 88/38/1
f 88/38/5 87/14/5 91/2/5 92/40/5
f 89/43/3 90/6/3 93/9/3 94/37/3
f 92/40/2 91/2/2 90/5/2 89/44/2
f 75/14/4 79/2/4 91/2/4 87/14/4
f 81/9/4 75/14/4 87/14/4 93/9/4
f 77/44/6 80/40/6 92/40/6 89/44/6
f 82/37/6 77/43/6 89/43/6 94/37/6
